<?xml version="1.0" encoding="UTF-8" standalone="no"?>
<svg id="svg2" xmlns:rdf="http://www.w3.org/1999/02/22-rdf-syntax-ns#" xmlns="http://www.w3.org/2000/svg" xml:space="preserve" height="140" width="736" version="1.1" xmlns:cc="http://creativecommons.org/ns#" viewBox="40 330 736 140" xmlns:dc="http://purl.org/dc/elements/1.1/"><metadata id="metadata8"><rdf:RDF><cc:Work rdf:about=""><dc:format>image/svg+xml</dc:format><dc:type rdf:resource="http://purl.org/dc/dcmitype/StillImage"/></cc:Work></rdf:RDF></metadata><defs id="defs6"><clipPath id="clipPath16" clipPathUnits="userSpaceOnUse"><path id="path18" d="m0 792h612v-792h-612v792z"/></clipPath></defs><g id="g10" transform="matrix(1.3333 0 0 -1.3333 0 1056)"><g id="g12"><g id="g14" clip-path="url(#clipPath16)"><g id="g20" transform="translate(42.081 512.49)"><path id="path22" d="m0 0v2.08c0 2.927 0.377 5.666 1.039 7.743 0.661 2.078 2.173 6.707 7.273 11.051 3.305 2.93 6.704 4.629 10.389 5.103 3.211-0.096 5.95-1.419 7.462-3.213 0.849-1.038 0.943-2.266 0.472-3.306-0.283-0.755-0.851-1.512-1.795-2.266-0.85-0.662-1.7-0.662-2.551 0.284-1.888 1.699-4.533 3.493-7.649 3.493-2.457 0-3.968-1.133-5.007-2.834-1.228-1.795-2.266-6.328-2.172-14.356v-3.779h11.145c0.567-0.85 0.095-3.114-0.944-3.681h-10.201v-27.201c0-6.991 0.661-7.274 8.123-8.03v-2.361h-22.291v2.455c6.045 0.568 6.707 1.039 6.707 7.274v27.863h-6.611l-0.379 0.942 2.55 2.739h4.44z" fill="#109ad2"/></g><g id="g24" transform="translate(86.747 510.69)"><path id="path26" d="m0 0v-2.456c-5.951-0.566-6.611-1.133-6.611-7.557v-19.549c0-5.762 0.283-6.234 5.949-7.086v-2.266c-4.816-0.755-9.255-1.984-13.411-3.681v32.582c0 6.424-0.661 6.991-6.707 7.557v2.456h20.78z" fill="#109ad2"/></g><g id="g28" transform="translate(75.695 455.42)"><path id="path30" d="m0 0c2.738 0 4.817-2.268 4.817-4.818 0-2.832-2.079-4.911-4.723-4.911-2.55 0-4.817 2.079-4.817 4.911 0 2.55 2.267 4.818 4.723 4.818" fill="#109ad2"/></g><g id="g32" transform="translate(123.59 471.22)"><path id="path34" d="m0 0v2.455c5.573 0.568 6.234 1.324 6.234 7.84v15.773c0 6.516-2.267 10.766-8.595 10.766-3.777 0-7.461-2.36-10.295-4.816v-22.194c0-6.424 0.566-6.801 6.139-7.369v-2.455h-20.495v2.455c6.422 0.662 6.894 1.135 6.894 7.369v19.549c0 6.046-0.566 6.329-5.666 7.274v2.172c4.534 0.85 8.972 1.983 13.128 3.872v-7.556c1.888 1.417 3.968 2.832 6.328 4.439 2.644 1.699 5.1 2.835 7.84 2.835 7.461 0 12.184-5.196 12.184-14.358v-18.227c0-6.424 0.472-6.801 5.95-7.369v-2.455h-19.646z" fill="#109ad2"/></g><g id="g36" transform="translate(172.14 493.89)"><path id="path38" d="m0 0c-1.984-1.039-6.518-3.023-8.501-3.967-3.684-1.699-5.762-3.494-5.762-6.894 0-4.912 3.779-7.274 6.707-7.274 2.456 0.096 5.761 1.699 7.556 3.401v14.734zm6.894-23.801c-1.416 0-3.399 0.85-4.438 1.795-1.229 1.32-1.795 2.643-2.267 4.25-3.778-2.551-8.312-6.045-11.145-6.045-6.707 0-11.335 5.572-11.335 11.524 0 4.625 2.456 7.556 7.651 9.349 5.667 1.889 12.562 4.44 14.64 6.139v1.701c0 6.798-3.212 10.671-7.934 10.671-1.889 0-3.307-0.754-4.251-1.887-1.228-1.229-2.078-3.306-2.832-6.139-0.379-1.608-1.418-2.266-2.739-2.266-1.701 0-4.157 1.885-4.157 4.059 0 1.416 1.228 2.456 3.023 3.779 2.645 1.888 8.784 5.572 14.167 6.612 2.834 0 5.667-0.853 7.744-2.551 3.307-2.739 4.251-6.612 4.251-11.524v-17.568c0-4.25 1.7-5.666 3.306-5.666 1.134 0 2.456 0.474 3.4 1.041l0.944-2.457-8.028-4.817z" fill="#109ad2"/></g><g id="g40" transform="translate(190.46 471.22)"><path id="path42" d="m0 0v2.455c5.949 0.568 6.801 1.135 6.801 7.369v44.674c0 6.42-0.568 6.707-6.518 7.177v2.267c4.91 0.567 10.769 2.172 13.977 3.308v-57.426c0-6.234 0.757-6.801 6.803-7.369v-2.455h-21.063z" fill="#109ad2"/></g><g id="g44" transform="translate(254.81 481.31)"><path id="path46" d="m0 0v14.502h9.942v-2.453h-7.014v-3.433h6.054v-2.453h-6.054v-6.163h-2.928z"/></g><path id="path48" d="m271.13 495.81h2.928v-14.502h-2.928v14.502z"/><g id="g50" transform="translate(280.93 481.31)"><path id="path52" d="m0 0v14.502h2.849l5.936-9.685v9.685h2.72v-14.502h-2.938l-5.846 9.457v-9.457h-2.721z"/></g><g id="g54" transform="translate(307.27 487.05)"><path id="path56" d="m0 0-1.998 5.382-1.959-5.382h3.957zm5.391-5.737h-3.185l-1.267 3.294h-5.796l-1.197-3.294h-3.106l5.648 14.502h3.096l5.807-14.502z"/></g><g id="g58" transform="translate(318.3 481.31)"><path id="path60" d="m0 0v14.502h2.849l5.935-9.685v9.685h2.721v-14.502h-2.939l-5.845 9.457v-9.457h-2.721z"/></g><g id="g62" transform="translate(346.23 486.64)"><path id="path64" d="m0 0 2.839-0.9c-0.436-1.583-1.159-2.759-2.171-3.527-1.013-0.768-2.297-1.152-3.854-1.152-1.925 0-3.508 0.657-4.748 1.974-1.24 1.315-1.859 3.114-1.859 5.395 0 2.414 0.623 4.289 1.869 5.624 1.246 1.336 2.885 2.003 4.916 2.003 1.775 0 3.216-0.524 4.323-1.572 0.66-0.62 1.155-1.511 1.485-2.671l-2.899-0.693c-0.172 0.751-0.529 1.345-1.073 1.781-0.545 0.435-1.206 0.652-1.983 0.652-1.075 0-1.948-0.386-2.617-1.157-0.669-0.772-1.004-2.022-1.004-3.749 0-1.833 0.33-3.139 0.989-3.917 0.659-0.779 1.516-1.167 2.572-1.167 0.778 0 1.447 0.247 2.008 0.741 0.561 0.495 0.963 1.273 1.207 2.335"/></g><path id="path66" d="m355.54 495.81h2.929v-14.502h-2.929v14.502z"/><g id="g68" transform="translate(373 487.05)"><path id="path70" d="m0 0-1.998 5.382-1.959-5.382h3.957zm5.392-5.737h-3.186l-1.267 3.294h-5.796l-1.197-3.294h-3.106l5.648 14.502h3.097l5.807-14.502z"/></g><g id="g72" transform="translate(384.07 481.31)"><path id="path74" d="m0 0v14.383h2.929v-11.94h7.28v-2.443h-10.209z"/></g><g id="g76" transform="translate(416.67 487.05)"><path id="path78" d="m0 0-1.998 5.382-1.959-5.382h3.957zm5.392-5.737h-3.186l-1.267 3.294h-5.796l-1.197-3.294h-3.106l5.648 14.502h3.097l5.807-14.502z"/></g><g id="g80" transform="translate(427.75 481.31)"><path id="path82" d="m0 0v14.383h2.929v-11.94h7.28v-2.443h-10.209z"/></g><g id="g84" transform="translate(450.84 486.64)"><path id="path86" d="m0 0v2.443h6.311v-5.777c-0.614-0.594-1.502-1.116-2.666-1.567-1.164-0.453-2.343-0.678-3.537-0.678-1.516 0-2.838 0.317-3.966 0.954s-1.975 1.547-2.542 2.73c-0.568 1.184-0.851 2.472-0.851 3.864 0 1.51 0.316 2.851 0.949 4.025s1.56 2.074 2.781 2.701c0.929 0.482 2.086 0.722 3.471 0.722 1.801 0 3.207-0.377 4.219-1.133 1.013-0.755 1.664-1.799 1.954-3.131l-2.908-0.544c-0.205 0.713-0.589 1.275-1.152 1.687-0.565 0.412-1.269 0.618-2.113 0.618-1.279 0-2.297-0.405-3.052-1.216-0.754-0.811-1.132-2.015-1.132-3.611 0-1.721 0.382-3.012 1.147-3.873 0.766-0.86 1.768-1.29 3.008-1.29 0.613 0 1.227 0.12 1.845 0.36 0.616 0.241 1.145 0.533 1.588 0.876v1.84h-3.354z"/></g><g id="g88" transform="translate(466.33 488.57)"><path id="path90" d="m0 0c0-1.642 0.379-2.887 1.138-3.734 0.758-0.848 1.721-1.271 2.888-1.271s2.125 0.42 2.873 1.261c0.749 0.841 1.123 2.102 1.123 3.784 0 1.661-0.364 2.901-1.092 3.719-0.729 0.818-1.697 1.226-2.904 1.226s-2.179-0.413-2.918-1.241c-0.739-0.827-1.108-2.075-1.108-3.744m-3.017-0.099c0 1.477 0.221 2.717 0.663 3.72 0.33 0.738 0.78 1.401 1.35 1.988s1.195 1.022 1.874 1.306c0.904 0.382 1.946 0.573 3.126 0.573 2.137 0 3.847-0.662 5.13-1.988 1.282-1.325 1.924-3.169 1.924-5.529 0-2.342-0.637-4.173-1.909-5.495-1.274-1.323-2.975-1.984-5.105-1.984-2.156 0-3.871 0.657-5.143 1.974-1.274 1.315-1.91 3.127-1.91 5.435"/></g><path id="path92" d="m500.05 495.81h2.929v-14.502h-2.929v14.502z"/><g id="g94" transform="translate(513.09 481.31)"><path id="path96" d="m0 0v12.049h-4.303v2.453h11.525v-2.453h-4.294v-12.049h-2.928z"/></g><g id="g98" transform="translate(526.26 481.31)"><path id="path100" d="m0 0v14.502h2.929v-5.708h5.737v5.708h2.928v-14.502h-2.928v6.341h-5.737v-6.341h-2.929z"/></g><g id="g102" transform="translate(544.89 481.31)"><path id="path104" d="m0 0v14.502h4.382l2.632-9.893 2.601 9.893h4.392v-14.502h-2.72v11.416l-2.879-11.416h-2.819l-2.869 11.416v-11.416h-2.72z"/></g><g id="g106" transform="translate(565.12 486.03)"><path id="path108" d="m0 0 2.849 0.276c0.171-0.956 0.519-1.658 1.044-2.106 0.523-0.448 1.231-0.673 2.121-0.673 0.943 0 1.654 0.199 2.132 0.599 0.478 0.398 0.717 0.865 0.717 1.399 0 0.343-0.1 0.635-0.301 0.876-0.202 0.24-0.553 0.45-1.054 0.628-0.343 0.118-1.124 0.33-2.345 0.633-1.569 0.389-2.671 0.867-3.304 1.434-0.89 0.798-1.336 1.771-1.336 2.918 0 0.739 0.21 1.43 0.629 2.073 0.418 0.643 1.022 1.132 1.81 1.469 0.788 0.336 1.739 0.504 2.854 0.504 1.821 0 3.191-0.398 4.111-1.196 0.92-0.799 1.402-1.863 1.449-3.195l-2.929-0.129c-0.125 0.745-0.393 1.281-0.805 1.607-0.413 0.326-1.031 0.49-1.856 0.49-0.85 0-1.516-0.174-1.998-0.524-0.309-0.225-0.465-0.524-0.465-0.9 0-0.343 0.146-0.637 0.436-0.881 0.369-0.31 1.265-0.633 2.69-0.969 1.425-0.337 2.479-0.685 3.161-1.044s1.216-0.851 1.603-1.474c0.386-0.624 0.578-1.393 0.578-2.31 0-0.831-0.23-1.609-0.692-2.334-0.462-0.726-1.115-1.265-1.959-1.617-0.844-0.354-1.896-0.53-3.156-0.53-1.833 0-3.241 0.423-4.223 1.271-0.984 0.848-1.571 2.083-1.761 3.705"/></g><path id="path110" d="m236.7 444.53h-4.64v92.801h4.64v-92.801z"/><g id="g112" transform="translate(485.64 489.73)"><path id="path114" d="m0 0h2.167c1.406 0 2.281 0.058 2.632 0.177 0.348 0.118 0.624 0.323 0.821 0.613 0.198 0.29 0.297 0.652 0.297 1.088 0 0.488-0.131 0.883-0.392 1.182-0.259 0.3-0.627 0.491-1.102 0.569-0.237 0.033-0.95 0.05-2.138 0.05h-2.285v-3.679zm-2.929-8.372v14.505h6.164c1.551 0 2.677-0.131 3.379-0.392 0.702-0.26 1.265-0.723 1.687-1.39 0.422-0.664 0.635-1.427 0.635-2.285 0-1.088-0.322-1.986-0.961-2.696-0.64-0.709-1.596-1.156-2.87-1.341 0.634-0.369 1.157-0.774 1.568-1.217 0.413-0.442 0.969-1.227 1.667-2.354l1.772-2.83h-3.503l-2.117 3.157c-0.752 1.127-1.265 1.839-1.543 2.131-0.277 0.294-0.571 0.496-0.881 0.605s-0.801 0.162-1.473 0.162h-0.595v-6.055h-2.929z"/></g></g></g></g></svg>
