<svg xmlns="http://www.w3.org/2000/svg" viewBox="40 330 736 140" xmlns:xlink="http://www.w3.org/1999/xlink"><defs><clipPath id="0"><path d="m0 792h612v-792h-612v792"/></clipPath></defs><g transform="matrix(1.33333 0 0-1.33333 0 1056)"><g clip-path="url(#0)"><g fill="#109ad2"><path d="m0 0v2.08c0 2.927.377 5.666 1.039 7.743.661 2.078 2.173 6.707 7.273 11.05 3.305 2.93 6.704 4.629 10.389 5.103 3.211-.096 5.95-1.419 7.462-3.213.849-1.038.943-2.266.472-3.306-.283-.755-.851-1.512-1.795-2.266-.85-.662-1.7-.662-2.551.284-1.888 1.699-4.533 3.493-7.649 3.493-2.457 0-3.968-1.133-5.01-2.834-1.228-1.795-2.266-6.328-2.172-14.356v-3.779h11.145c.567-.85.095-3.114-.944-3.681h-10.201v-27.2c0-6.991.661-7.274 8.123-8.03v-2.361h-22.291v2.455c6.04.568 6.707 1.039 6.707 7.274v27.863h-6.611l-.379.942 2.55 2.739h4.44" transform="translate(42.08 512.49)"/><path d="m0 0v-2.456c-5.951-.566-6.611-1.133-6.611-7.557v-19.549c0-5.762.283-6.234 5.949-7.086v-2.266c-4.816-.755-9.255-1.984-13.411-3.681v32.582c0 6.424-.661 6.991-6.707 7.557v2.456h20.78" transform="translate(86.75 510.69)"/><path d="m0 0c2.738 0 4.817-2.268 4.817-4.818 0-2.832-2.079-4.911-4.723-4.911-2.55 0-4.817 2.079-4.817 4.911 0 2.55 2.267 4.818 4.723 4.818" transform="translate(75.69 455.42)"/><path d="m0 0v2.455c5.573.568 6.234 1.324 6.234 7.84v15.773c0 6.516-2.267 10.766-8.595 10.766-3.777 0-7.461-2.36-10.295-4.816v-22.19c0-6.424.566-6.801 6.139-7.369v-2.455h-20.495v2.455c6.422.662 6.894 1.135 6.894 7.369v19.549c0 6.05-.566 6.329-5.666 7.274v2.172c4.534.85 8.972 1.983 13.13 3.872v-7.556c1.888 1.417 3.968 2.832 6.328 4.439 2.644 1.699 5.1 2.835 7.84 2.835 7.461 0 12.184-5.196 12.184-14.358v-18.227c0-6.424.472-6.801 5.95-7.369v-2.455h-19.646" transform="translate(123.59 471.22)"/><path d="m0 0c-1.984-1.039-6.518-3.02-8.501-3.967-3.684-1.699-5.762-3.494-5.762-6.894 0-4.912 3.779-7.274 6.707-7.274 2.456.096 5.761 1.699 7.556 3.401v14.734m6.894-23.801c-1.416 0-3.399.85-4.438 1.795-1.229 1.32-1.795 2.643-2.267 4.25-3.778-2.551-8.312-6.05-11.145-6.05-6.707 0-11.335 5.572-11.335 11.524 0 4.625 2.456 7.556 7.651 9.349 5.667 1.889 12.562 4.44 14.64 6.139v1.701c0 6.798-3.212 10.671-7.934 10.671-1.889 0-3.307-.754-4.251-1.887-1.228-1.229-2.078-3.306-2.832-6.139-.379-1.608-1.418-2.266-2.739-2.266-1.701 0-4.157 1.885-4.157 4.059 0 1.416 1.228 2.456 3.02 3.779 2.645 1.888 8.784 5.572 14.167 6.612 2.834 0 5.667-.853 7.744-2.551 3.307-2.739 4.251-6.612 4.251-11.524v-17.568c0-4.25 1.7-5.666 3.306-5.666 1.134 0 2.456.474 3.4 1.041l.944-2.457-8.03-4.817z" transform="translate(172.14 493.89)"/><path d="m0 0v2.455c5.949.568 6.801 1.135 6.801 7.369v44.674c0 6.42-.568 6.707-6.518 7.177v2.267c4.91.567 10.769 2.172 13.977 3.308v-57.43c0-6.234.757-6.801 6.803-7.369v-2.455h-21.06" transform="translate(190.46 471.22)"/></g><path d="m0 0v14.502h9.942v-2.453h-7.01v-3.433h6.05v-2.453h-6.05v-6.163h-2.928" transform="translate(254.81 481.31)"/><path d="m271.13 495.81h2.928v-14.502h-2.928v14.502"/><path d="m0 0v14.502h2.849l5.936-9.685v9.685h2.72v-14.502h-2.938l-5.846 9.457v-9.457h-2.721" transform="translate(280.93 481.31)"/><path d="m0 0l-1.998 5.382-1.959-5.382h3.957m5.391-5.737h-3.185l-1.267 3.294h-5.796l-1.197-3.294h-3.106l5.648 14.502h3.096l5.807-14.502z" transform="translate(307.27 487.05)"/><path d="m0 0v14.502h2.849l5.935-9.685v9.685h2.721v-14.502h-2.939l-5.845 9.457v-9.457h-2.721" transform="translate(318.3 481.31)"/><path d="m0 0l2.839-.9c-.436-1.583-1.159-2.759-2.171-3.527-1.013-.768-2.297-1.152-3.854-1.152-1.925 0-3.508.657-4.748 1.974-1.24 1.315-1.859 3.114-1.859 5.395 0 2.414.623 4.289 1.869 5.624 1.246 1.336 2.885 2 4.916 2 1.775 0 3.216-.524 4.323-1.572.66-.62 1.155-1.511 1.485-2.671l-2.899-.693c-.172.751-.529 1.345-1.073 1.781-.545.435-1.206.652-1.983.652-1.075 0-1.948-.386-2.617-1.157-.669-.772-1-2.02-1-3.749 0-1.833.33-3.139.989-3.917.659-.779 1.516-1.167 2.572-1.167.778 0 1.447.247 2.01.741.561.495.963 1.273 1.207 2.335" transform="translate(346.23 486.64)"/><path d="m355.54 495.81h2.929v-14.502h-2.929v14.502"/><path d="m0 0l-1.998 5.382-1.959-5.382h3.957m5.392-5.737h-3.186l-1.267 3.294h-5.796l-1.197-3.294h-3.106l5.648 14.502h3.097l5.807-14.502z" transform="translate(373 487.05)" id="1"/><path d="m0 0v14.383h2.929v-11.94h7.28v-2.443h-10.209" transform="translate(384.07 481.31)" id="2"/><use transform="translate(43.672)" xlink:href="#1"/><use transform="translate(43.672)" xlink:href="#2"/><path d="m0 0v2.443h6.311v-5.777c-.614-.594-1.502-1.116-2.666-1.567-1.164-.453-2.343-.678-3.537-.678-1.516 0-2.838.317-3.966.954-1.128.637-1.975 1.547-2.542 2.73-.568 1.184-.851 2.472-.851 3.864 0 1.51.316 2.851.949 4.03.633 1.174 1.56 2.074 2.781 2.701.929.482 2.086.722 3.471.722 1.801 0 3.207-.377 4.219-1.133 1.013-.755 1.664-1.799 1.954-3.131l-2.908-.544c-.205.713-.589 1.275-1.152 1.687-.565.412-1.269.618-2.113.618-1.279 0-2.297-.405-3.052-1.216-.754-.811-1.132-2.02-1.132-3.611 0-1.721.382-3.01 1.147-3.873.766-.86 1.768-1.29 3.01-1.29.613 0 1.227.12 1.845.36.616.241 1.145.533 1.588.876v1.84h-3.354" transform="translate(450.84 486.64)"/><path d="m0 0c0-1.642.379-2.887 1.138-3.734.758-.848 1.721-1.271 2.888-1.271 1.167 0 2.125.42 2.873 1.261.749.841 1.123 2.102 1.123 3.784 0 1.661-.364 2.901-1.092 3.719-.729.818-1.697 1.226-2.904 1.226-1.207 0-2.179-.413-2.918-1.241-.739-.827-1.108-2.075-1.108-3.744m-3.02-.099c0 1.477.221 2.717.663 3.72.33.738.78 1.401 1.35 1.988.57.587 1.195 1.022 1.874 1.306.904.382 1.946.573 3.126.573 2.137 0 3.847-.662 5.13-1.988 1.282-1.325 1.924-3.169 1.924-5.529 0-2.342-.637-4.173-1.909-5.495-1.274-1.323-2.975-1.984-5.105-1.984-2.156 0-3.871.657-5.143 1.974-1.274 1.315-1.91 3.127-1.91 5.435" transform="translate(466.33 488.57)"/><path d="m500.05 495.81h2.929v-14.502h-2.929v14.502"/><path d="m0 0v12.05h-4.303v2.453h11.525v-2.453h-4.294v-12.05h-2.928" transform="translate(513.09 481.31)"/><path d="m0 0v14.502h2.929v-5.708h5.737v5.708h2.928v-14.502h-2.928v6.341h-5.737v-6.341h-2.929" transform="translate(526.26 481.31)"/><path d="m0 0v14.502h4.382l2.632-9.893 2.601 9.893h4.392v-14.502h-2.72v11.416l-2.879-11.416h-2.819l-2.869 11.416v-11.416h-2.72" transform="translate(544.89 481.31)"/><path d="m0 0l2.849.276c.171-.956.519-1.658 1.044-2.106.523-.448 1.231-.673 2.121-.673.943 0 1.654.199 2.132.599.478.398.717.865.717 1.399 0 .343-.1.635-.301.876-.202.24-.553.45-1.054.628-.343.118-1.124.33-2.345.633-1.569.389-2.671.867-3.304 1.434-.89.798-1.336 1.771-1.336 2.918 0 .739.21 1.43.629 2.073.418.643 1.022 1.132 1.81 1.469.788.336 1.739.504 2.854.504 1.821 0 3.191-.398 4.111-1.196.92-.799 1.402-1.863 1.449-3.195l-2.929-.129c-.125.745-.393 1.281-.805 1.607-.413.326-1.031.49-1.856.49-.85 0-1.516-.174-1.998-.524-.309-.225-.465-.524-.465-.9 0-.343.146-.637.436-.881.369-.31 1.265-.633 2.69-.969 1.425-.337 2.479-.685 3.161-1.044.682-.359 1.216-.851 1.603-1.474.386-.624.578-1.393.578-2.31 0-.831-.23-1.609-.692-2.334-.462-.726-1.115-1.265-1.959-1.617-.844-.354-1.896-.53-3.156-.53-1.833 0-3.241.423-4.223 1.271-.984.848-1.571 2.083-1.761 3.705" transform="translate(565.12 486.03)"/><path d="m236.7 444.53h-4.64v92.8h4.64v-92.8"/><path d="m0 0h2.167c1.406 0 2.281.058 2.632.177.348.118.624.323.821.613.198.29.297.652.297 1.088 0 .488-.131.883-.392 1.182-.259.3-.627.491-1.102.569-.237.033-.95.05-2.138.05h-2.285v-3.679m-2.929-8.372v14.505h6.164c1.551 0 2.677-.131 3.379-.392.702-.26 1.265-.723 1.687-1.39.422-.664.635-1.427.635-2.285 0-1.088-.322-1.986-.961-2.696-.64-.709-1.596-1.156-2.87-1.341.634-.369 1.157-.774 1.568-1.217.413-.442.969-1.227 1.667-2.354l1.772-2.83h-3.503l-2.117 3.157c-.752 1.127-1.265 1.839-1.543 2.131-.277.294-.571.496-.881.605-.31.109-.801.162-1.473.162h-.595v-6.05h-2.929z" transform="translate(485.64 489.73)"/></g></g></svg>