<?xml version="1.0" encoding="UTF-8" standalone="no"?>
<svg
   xmlns:dc="http://purl.org/dc/elements/1.1/"
   xmlns:cc="http://creativecommons.org/ns#"
   xmlns:rdf="http://www.w3.org/1999/02/22-rdf-syntax-ns#"
   xmlns:svg="http://www.w3.org/2000/svg"
   xmlns="http://www.w3.org/2000/svg"
   viewBox="40 330 736 140"
   height="140"
   width="736"
   xml:space="preserve"
   version="1.1"
   id="svg2"><metadata
     id="metadata8"><rdf:RDF><cc:Work
         rdf:about=""><dc:format>image/svg+xml</dc:format><dc:type
           rdf:resource="http://purl.org/dc/dcmitype/StillImage" /></cc:Work></rdf:RDF></metadata><defs
     id="defs6"><clipPath
       id="clipPath16"
       clipPathUnits="userSpaceOnUse"><path
         id="path18"
         d="M 0,792 612,792 612,0 0,0 0,792 Z" /></clipPath></defs><g
     transform="matrix(1.3333333,0,0,-1.3333333,0,1056)"
     id="g10"><g
       id="g12"><g
         clip-path="url(#clipPath16)"
         id="g14"><g
           transform="translate(42.0806,512.4907)"
           id="g20"><path
             id="path22"
             style="fill:#109ad2;fill-opacity:1;fill-rule:nonzero;stroke:none"
             d="m 0,0 0,2.08 c 0,2.927 0.377,5.666 1.039,7.743 0.661,2.078 2.173,6.707 7.273,11.051 3.305,2.93 6.704,4.629 10.389,5.103 3.211,-0.096 5.95,-1.419 7.462,-3.213 0.849,-1.038 0.943,-2.266 0.472,-3.306 -0.283,-0.755 -0.851,-1.512 -1.795,-2.266 -0.85,-0.662 -1.7,-0.662 -2.551,0.284 -1.888,1.699 -4.533,3.493 -7.649,3.493 -2.457,0 -3.968,-1.133 -5.007,-2.834 C 8.405,16.34 7.367,11.807 7.461,3.779 L 7.461,0 18.606,0 c 0.567,-0.85 0.095,-3.114 -0.944,-3.681 l -10.201,0 0,-27.201 c 0,-6.991 0.661,-7.274 8.123,-8.03 l 0,-2.361 -22.291,0 0,2.455 C -0.662,-38.25 0,-37.779 0,-31.544 l 0,27.863 -6.611,0 L -6.99,-2.739 -4.44,0 0,0 Z" /></g><g
           transform="translate(86.7466,510.6899)"
           id="g24"><path
             id="path26"
             style="fill:#109ad2;fill-opacity:1;fill-rule:nonzero;stroke:none"
             d="m 0,0 0,-2.456 c -5.951,-0.566 -6.611,-1.133 -6.611,-7.557 l 0,-19.549 c 0,-5.762 0.283,-6.234 5.949,-7.086 l 0,-2.266 c -4.816,-0.755 -9.255,-1.984 -13.411,-3.681 l 0,32.582 c 0,6.424 -0.661,6.991 -6.707,7.557 L -20.78,0 0,0 Z" /></g><g
           transform="translate(75.6948,455.4248)"
           id="g28"><path
             id="path30"
             style="fill:#109ad2;fill-opacity:1;fill-rule:nonzero;stroke:none"
             d="m 0,0 c 2.738,0 4.817,-2.268 4.817,-4.818 0,-2.832 -2.079,-4.911 -4.723,-4.911 -2.55,0 -4.817,2.079 -4.817,4.911 C -4.723,-2.268 -2.456,0 0,0" /></g><g
           transform="translate(123.5894,471.2178)"
           id="g32"><path
             id="path34"
             style="fill:#109ad2;fill-opacity:1;fill-rule:nonzero;stroke:none"
             d="m 0,0 0,2.455 c 5.573,0.568 6.234,1.324 6.234,7.84 l 0,15.773 c 0,6.516 -2.267,10.766 -8.595,10.766 -3.777,0 -7.461,-2.36 -10.295,-4.816 l 0,-22.194 c 0,-6.424 0.566,-6.801 6.139,-7.369 l 0,-2.455 -20.495,0 0,2.455 c 6.422,0.662 6.894,1.135 6.894,7.369 l 0,19.549 c 0,6.046 -0.566,6.329 -5.666,7.274 l 0,2.172 c 4.534,0.85 8.972,1.983 13.128,3.872 l 0,-7.556 c 1.888,1.417 3.968,2.832 6.328,4.439 2.644,1.699 5.1,2.835 7.84,2.835 7.461,0 12.184,-5.196 12.184,-14.358 l 0,-18.227 c 0,-6.424 0.472,-6.801 5.95,-7.369 L 19.646,0 0,0 Z" /></g><g
           transform="translate(172.1362,493.8857)"
           id="g36"><path
             id="path38"
             style="fill:#109ad2;fill-opacity:1;fill-rule:nonzero;stroke:none"
             d="m 0,0 c -1.984,-1.039 -6.518,-3.023 -8.501,-3.967 -3.684,-1.699 -5.762,-3.494 -5.762,-6.894 0,-4.912 3.779,-7.274 6.707,-7.274 2.456,0.096 5.761,1.699 7.556,3.401 L 0,0 Z m 6.894,-23.801 c -1.416,0 -3.399,0.85 -4.438,1.795 -1.229,1.32 -1.795,2.643 -2.267,4.25 -3.778,-2.551 -8.312,-6.045 -11.145,-6.045 -6.707,0 -11.335,5.572 -11.335,11.524 0,4.625 2.456,7.556 7.651,9.349 5.667,1.889 12.562,4.44 14.64,6.139 l 0,1.701 c 0,6.798 -3.212,10.671 -7.934,10.671 -1.889,0 -3.307,-0.754 -4.251,-1.887 -1.228,-1.229 -2.078,-3.306 -2.832,-6.139 -0.379,-1.608 -1.418,-2.266 -2.739,-2.266 -1.701,0 -4.157,1.885 -4.157,4.059 0,1.416 1.228,2.456 3.023,3.779 2.645,1.888 8.784,5.572 14.167,6.612 2.834,0 5.667,-0.853 7.744,-2.551 3.307,-2.739 4.251,-6.612 4.251,-11.524 l 0,-17.568 c 0,-4.25 1.7,-5.666 3.306,-5.666 1.134,0 2.456,0.474 3.4,1.041 l 0.944,-2.457 -8.028,-4.817 z" /></g><g
           transform="translate(190.457,471.2178)"
           id="g40"><path
             id="path42"
             style="fill:#109ad2;fill-opacity:1;fill-rule:nonzero;stroke:none"
             d="M 0,0 0,2.455 C 5.949,3.023 6.801,3.59 6.801,9.824 l 0,44.674 c 0,6.42 -0.568,6.707 -6.518,7.177 l 0,2.267 c 4.91,0.567 10.769,2.172 13.977,3.308 l 0,-57.426 c 0,-6.234 0.757,-6.801 6.803,-7.369 L 21.063,0 0,0 Z" /></g><g
           transform="translate(254.8149,481.3086)"
           id="g44"><path
             id="path46"
             style="fill:#ffffff;fill-opacity:1;fill-rule:nonzero;stroke:none"
             d="m 0,0 0,14.502 9.942,0 0,-2.453 -7.014,0 0,-3.433 6.054,0 0,-2.453 -6.054,0 L 2.928,0 0,0 Z" /></g><path
           id="path48"
           style="fill:#ffffff;fill-opacity:1;fill-rule:nonzero;stroke:none"
           d="m 271.133,495.811 2.928,0 0,-14.502 -2.928,0 0,14.502 z" /><g
           transform="translate(280.9321,481.3086)"
           id="g50"><path
             id="path52"
             style="fill:#ffffff;fill-opacity:1;fill-rule:nonzero;stroke:none"
             d="m 0,0 0,14.502 2.849,0 5.936,-9.685 0,9.685 2.72,0 L 11.505,0 8.567,0 2.721,9.457 2.721,0 0,0 Z" /></g><g
           transform="translate(307.2715,487.0459)"
           id="g54"><path
             id="path56"
             style="fill:#ffffff;fill-opacity:1;fill-rule:nonzero;stroke:none"
             d="M 0,0 -1.998,5.382 -3.957,0 0,0 Z m 5.391,-5.737 -3.185,0 -1.267,3.294 -5.796,0 -1.197,-3.294 -3.106,0 5.648,14.502 3.096,0 5.807,-14.502 z" /></g><g
           transform="translate(318.2969,481.3086)"
           id="g58"><path
             id="path60"
             style="fill:#ffffff;fill-opacity:1;fill-rule:nonzero;stroke:none"
             d="m 0,0 0,14.502 2.849,0 5.935,-9.685 0,9.685 2.721,0 L 11.505,0 8.566,0 2.721,9.457 2.721,0 0,0 Z" /></g><g
           transform="translate(346.2285,486.6406)"
           id="g62"><path
             id="path64"
             style="fill:#ffffff;fill-opacity:1;fill-rule:nonzero;stroke:none"
             d="M 0,0 2.839,-0.9 C 2.403,-2.483 1.68,-3.659 0.668,-4.427 c -1.013,-0.768 -2.297,-1.152 -3.854,-1.152 -1.925,0 -3.508,0.657 -4.748,1.974 -1.24,1.315 -1.859,3.114 -1.859,5.395 0,2.414 0.623,4.289 1.869,5.624 1.246,1.336 2.885,2.003 4.916,2.003 1.775,0 3.216,-0.524 4.323,-1.572 C 1.975,7.225 2.47,6.334 2.8,5.174 L -0.099,4.481 c -0.172,0.751 -0.529,1.345 -1.073,1.781 -0.545,0.435 -1.206,0.652 -1.983,0.652 -1.075,0 -1.948,-0.386 -2.617,-1.157 -0.669,-0.772 -1.004,-2.022 -1.004,-3.749 0,-1.833 0.33,-3.139 0.989,-3.917 0.659,-0.779 1.516,-1.167 2.572,-1.167 0.778,0 1.447,0.247 2.008,0.741 C -0.646,-1.84 -0.244,-1.062 0,0" /></g><path
           id="path66"
           style="fill:#ffffff;fill-opacity:1;fill-rule:nonzero;stroke:none"
           d="m 355.543,495.811 2.929,0 0,-14.502 -2.929,0 0,14.502 z" /><g
           transform="translate(372.999,487.0459)"
           id="g68"><path
             id="path70"
             style="fill:#ffffff;fill-opacity:1;fill-rule:nonzero;stroke:none"
             d="M 0,0 -1.998,5.382 -3.957,0 0,0 Z m 5.392,-5.737 -3.186,0 -1.267,3.294 -5.796,0 -1.197,-3.294 -3.106,0 5.648,14.502 3.097,0 5.807,-14.502 z" /></g><g
           transform="translate(384.0742,481.3086)"
           id="g72"><path
             id="path74"
             style="fill:#ffffff;fill-opacity:1;fill-rule:nonzero;stroke:none"
             d="m 0,0 0,14.383 2.929,0 0,-11.94 7.28,0 L 10.209,0 0,0 Z" /></g><g
           transform="translate(416.6709,487.0459)"
           id="g76"><path
             id="path78"
             style="fill:#ffffff;fill-opacity:1;fill-rule:nonzero;stroke:none"
             d="M 0,0 -1.998,5.382 -3.957,0 0,0 Z m 5.392,-5.737 -3.186,0 -1.267,3.294 -5.796,0 -1.197,-3.294 -3.106,0 5.648,14.502 3.097,0 5.807,-14.502 z" /></g><g
           transform="translate(427.7461,481.3086)"
           id="g80"><path
             id="path82"
             style="fill:#ffffff;fill-opacity:1;fill-rule:nonzero;stroke:none"
             d="m 0,0 0,14.383 2.929,0 0,-11.94 7.28,0 L 10.209,0 0,0 Z" /></g><g
           transform="translate(450.8408,486.6406)"
           id="g84"><path
             id="path86"
             style="fill:#ffffff;fill-opacity:1;fill-rule:nonzero;stroke:none"
             d="m 0,0 0,2.443 6.311,0 0,-5.777 C 5.697,-3.928 4.809,-4.45 3.645,-4.901 2.481,-5.354 1.302,-5.579 0.108,-5.579 c -1.516,0 -2.838,0.317 -3.966,0.954 -1.128,0.637 -1.975,1.547 -2.542,2.73 -0.568,1.184 -0.851,2.472 -0.851,3.864 0,1.51 0.316,2.851 0.949,4.025 0.633,1.174 1.56,2.074 2.781,2.701 0.929,0.482 2.086,0.722 3.471,0.722 1.801,0 3.207,-0.377 4.219,-1.133 C 5.182,7.529 5.833,6.485 6.123,5.153 L 3.215,4.609 C 3.01,5.322 2.626,5.884 2.063,6.296 1.498,6.708 0.794,6.914 -0.05,6.914 -1.329,6.914 -2.347,6.509 -3.102,5.698 -3.856,4.887 -4.234,3.683 -4.234,2.087 c 0,-1.721 0.382,-3.012 1.147,-3.873 0.766,-0.86 1.768,-1.29 3.008,-1.29 0.613,0 1.227,0.12 1.845,0.36 0.616,0.241 1.145,0.533 1.588,0.876 L 3.354,0 0,0 Z" /></g><g
           transform="translate(466.3281,488.5693)"
           id="g88"><path
             id="path90"
             style="fill:#ffffff;fill-opacity:1;fill-rule:nonzero;stroke:none"
             d="m 0,0 c 0,-1.642 0.379,-2.887 1.138,-3.734 0.758,-0.848 1.721,-1.271 2.888,-1.271 1.167,0 2.125,0.42 2.873,1.261 0.749,0.841 1.123,2.102 1.123,3.784 0,1.661 -0.364,2.901 -1.092,3.719 C 6.201,4.577 5.233,4.985 4.026,4.985 2.819,4.985 1.847,4.572 1.108,3.744 0.369,2.917 0,1.669 0,0 m -3.017,-0.099 c 0,1.477 0.221,2.717 0.663,3.72 0.33,0.738 0.78,1.401 1.35,1.988 0.57,0.587 1.195,1.022 1.874,1.306 0.904,0.382 1.946,0.573 3.126,0.573 2.137,0 3.847,-0.662 5.13,-1.988 1.282,-1.325 1.924,-3.169 1.924,-5.529 0,-2.342 -0.637,-4.173 -1.909,-5.495 -1.274,-1.323 -2.975,-1.984 -5.105,-1.984 -2.156,0 -3.871,0.657 -5.143,1.974 -1.274,1.315 -1.91,3.127 -1.91,5.435" /></g><path
           id="path92"
           style="fill:#ffffff;fill-opacity:1;fill-rule:nonzero;stroke:none"
           d="m 500.053,495.811 2.929,0 0,-14.502 -2.929,0 0,14.502 z" /><g
           transform="translate(513.0869,481.3086)"
           id="g94"><path
             id="path96"
             style="fill:#ffffff;fill-opacity:1;fill-rule:nonzero;stroke:none"
             d="m 0,0 0,12.049 -4.303,0 0,2.453 11.525,0 0,-2.453 -4.294,0 L 2.928,0 0,0 Z" /></g><g
           transform="translate(526.2588,481.3086)"
           id="g98"><path
             id="path100"
             style="fill:#ffffff;fill-opacity:1;fill-rule:nonzero;stroke:none"
             d="m 0,0 0,14.502 2.929,0 0,-5.708 5.737,0 0,5.708 2.928,0 0,-14.502 -2.928,0 0,6.341 -5.737,0 L 2.929,0 0,0 Z" /></g><g
           transform="translate(544.8926,481.3086)"
           id="g102"><path
             id="path104"
             style="fill:#ffffff;fill-opacity:1;fill-rule:nonzero;stroke:none"
             d="m 0,0 0,14.502 4.382,0 2.632,-9.893 2.601,9.893 4.392,0 0,-14.502 -2.72,0 0,11.416 L 8.408,0 5.589,0 2.72,11.416 2.72,0 0,0 Z" /></g><g
           transform="translate(565.1182,486.0273)"
           id="g106"><path
             id="path108"
             style="fill:#ffffff;fill-opacity:1;fill-rule:nonzero;stroke:none"
             d="M 0,0 2.849,0.276 C 3.02,-0.68 3.368,-1.382 3.893,-1.83 c 0.523,-0.448 1.231,-0.673 2.121,-0.673 0.943,0 1.654,0.199 2.132,0.599 0.478,0.398 0.717,0.865 0.717,1.399 0,0.343 -0.1,0.635 -0.301,0.876 C 8.36,0.611 8.009,0.821 7.508,0.999 7.165,1.117 6.384,1.329 5.163,1.632 3.594,2.021 2.492,2.499 1.859,3.066 0.969,3.864 0.523,4.837 0.523,5.984 c 0,0.739 0.21,1.43 0.629,2.073 0.418,0.643 1.022,1.132 1.81,1.469 0.788,0.336 1.739,0.504 2.854,0.504 1.821,0 3.191,-0.398 4.111,-1.196 0.92,-0.799 1.402,-1.863 1.449,-3.195 L 8.447,5.51 C 8.322,6.255 8.054,6.791 7.642,7.117 7.229,7.443 6.611,7.607 5.786,7.607 4.936,7.607 4.27,7.433 3.788,7.083 3.479,6.858 3.323,6.559 3.323,6.183 3.323,5.84 3.469,5.546 3.759,5.302 4.128,4.992 5.024,4.669 6.449,4.333 7.874,3.996 8.928,3.648 9.61,3.289 10.292,2.93 10.826,2.438 11.213,1.815 c 0.386,-0.624 0.578,-1.393 0.578,-2.31 0,-0.831 -0.23,-1.609 -0.692,-2.334 C 10.637,-3.555 9.984,-4.094 9.14,-4.446 8.296,-4.8 7.244,-4.976 5.984,-4.976 4.151,-4.976 2.743,-4.553 1.761,-3.705 0.777,-2.857 0.19,-1.622 0,0" /></g><path
           id="path110"
           style="fill:#ffffff;fill-opacity:1;fill-rule:nonzero;stroke:none"
           d="m 236.701,444.526 -4.64,0 0,92.801 4.64,0 0,-92.801 z" /><g
           transform="translate(485.6436,489.7285)"
           id="g112"><path
             id="path114"
             style="fill:#ffffff;fill-opacity:1;fill-rule:nonzero;stroke:none"
             d="M 0,0 2.167,0 C 3.573,0 4.448,0.058 4.799,0.177 5.147,0.295 5.423,0.5 5.62,0.79 5.818,1.08 5.917,1.442 5.917,1.878 5.917,2.366 5.786,2.761 5.525,3.06 5.266,3.36 4.898,3.551 4.423,3.629 4.186,3.662 3.473,3.679 2.285,3.679 L 0,3.679 0,0 Z m -2.929,-8.372 0,14.505 6.164,0 C 4.786,6.133 5.912,6.002 6.614,5.741 7.316,5.481 7.879,5.018 8.301,4.351 8.723,3.687 8.936,2.924 8.936,2.066 8.936,0.978 8.614,0.08 7.975,-0.63 7.335,-1.339 6.379,-1.786 5.105,-1.971 5.739,-2.34 6.262,-2.745 6.673,-3.188 7.086,-3.63 7.642,-4.415 8.34,-5.542 l 1.772,-2.83 -3.503,0 -2.117,3.157 C 3.74,-4.088 3.227,-3.376 2.949,-3.084 2.672,-2.79 2.378,-2.588 2.068,-2.479 1.758,-2.37 1.267,-2.317 0.595,-2.317 l -0.595,0 0,-6.055 -2.929,0 z" /></g><g
           transform="translate(42.0806,349.9766)"
           id="g116">
           </g></g></g></g></svg>
